HIERARCHY
ROOT hips_JNT
{
	OFFSET 0.000000 0.000000 0.000000
	CHANNELS 6 Xposition Yposition Zposition Zrotation Xrotation Yrotation
	JOINT spine_JNT
	{
		OFFSET -0.000424 -2.543419 9.319810
		CHANNELS 6 Xposition Yposition Zposition Zrotation Xrotation Yrotation
		JOINT spine1_JNT
		{
			OFFSET 0.000000 0.000046 10.873099
			CHANNELS 6 Xposition Yposition Zposition Zrotation Xrotation Yrotation
			JOINT spine2_JNT
			{
				OFFSET 0.000000 5.951161 12.426399
				CHANNELS 6 Xposition Yposition Zposition Zrotation Xrotation Yrotation
				JOINT neck_JNT
				{
					OFFSET 0.000000 1.460481 13.979698
					CHANNELS 6 Xposition Yposition Zposition Zrotation Xrotation Yrotation
					JOINT head_JNT
					{
						OFFSET 0.000000 -2.091499 5.870201
						CHANNELS 6 Xposition Yposition Zposition Zrotation Xrotation Yrotation
						End Site
						{
							OFFSET 0.000000 0.000000 0.099998
						}
					}
				}
				JOINT l_shoulder_JNT
				{
					OFFSET 4.399140 1.485011 12.861000
					CHANNELS 6 Xposition Yposition Zposition Zrotation Xrotation Yrotation
					JOINT l_arm_JNT
					{
						OFFSET 8.757349 0.049052 -2.311981
						CHANNELS 6 Xposition Yposition Zposition Zrotation Xrotation Yrotation
						JOINT l_forearm_JNT
						{
							OFFSET 26.900103 -0.000013 -0.000046
							CHANNELS 6 Xposition Yposition Zposition Zrotation Xrotation Yrotation
							JOINT l_hand_JNT
							{
								OFFSET 23.014801 0.000004 -0.000046
								CHANNELS 6 Xposition Yposition Zposition Zrotation Xrotation Yrotation
								JOINT l_handThumb1_JNT
								{
									OFFSET 3.629997 -2.130000 -0.779999
									CHANNELS 6 Xposition Yposition Zposition Zrotation Xrotation Yrotation
									JOINT l_handThumb2_JNT
									{
										OFFSET 3.551140 -2.240060 -2.118370
										CHANNELS 6 Xposition Yposition Zposition Zrotation Xrotation Yrotation
										JOINT l_handThumb3_JNT
										{
											OFFSET 2.159111 -0.963467 -1.116310
											CHANNELS 6 Xposition Yposition Zposition Zrotation Xrotation Yrotation
											End Site
											{
												OFFSET 0.000000 0.000000 0.099998
											}
										}
									}
								}
								JOINT l_handIndex1_JNT
								{
									OFFSET 10.514900 -2.197570 -0.041019
									CHANNELS 6 Xposition Yposition Zposition Zrotation Xrotation Yrotation
									JOINT l_handIndex2_JNT
									{
										OFFSET 2.751831 0.139054 -0.102867
										CHANNELS 6 Xposition Yposition Zposition Zrotation Xrotation Yrotation
										JOINT l_handIndex3_JNT
										{
											OFFSET 2.353012 0.090487 -0.073399
											CHANNELS 6 Xposition Yposition Zposition Zrotation Xrotation Yrotation
											End Site
											{
												OFFSET 0.000000 0.000000 0.099998
											}
										}
									}
								}
								JOINT l_handMiddle1_JNT
								{
									OFFSET 10.067101 -0.059573 0.139202
									CHANNELS 6 Xposition Yposition Zposition Zrotation Xrotation Yrotation
									JOINT l_handMiddle2_JNT
									{
										OFFSET 3.909027 0.119066 -0.288403
										CHANNELS 6 Xposition Yposition Zposition Zrotation Xrotation Yrotation
										JOINT l_handMiddle3_JNT
										{
											OFFSET 2.328400 0.059440 -0.019108
											CHANNELS 6 Xposition Yposition Zposition Zrotation Xrotation Yrotation
											End Site
											{
												OFFSET 0.000000 0.000000 0.099998
											}
										}
									}
								}
								JOINT l_handRing1_JNT
								{
									OFFSET 9.468109 1.809830 0.132240
									CHANNELS 6 Xposition Yposition Zposition Zrotation Xrotation Yrotation
									JOINT l_handRing2_JNT
									{
										OFFSET 3.281532 0.033937 -0.224052
										CHANNELS 6 Xposition Yposition Zposition Zrotation Xrotation Yrotation
										JOINT l_handRing3_JNT
										{
											OFFSET 2.245003 0.008389 -0.070213
											CHANNELS 6 Xposition Yposition Zposition Zrotation Xrotation Yrotation
											End Site
											{
												OFFSET 0.000000 0.000000 0.099998
											}
										}
									}
								}
								JOINT l_handPinky1_JNT
								{
									OFFSET 8.490768 3.584150 -0.077770
									CHANNELS 6 Xposition Yposition Zposition Zrotation Xrotation Yrotation
									JOINT l_handPinky2_JNT
									{
										OFFSET 2.532173 0.017040 -0.073074
										CHANNELS 6 Xposition Yposition Zposition Zrotation Xrotation Yrotation
										JOINT l_handPinky3_JNT
										{
											OFFSET 1.951210 -0.017009 0.025116
											CHANNELS 6 Xposition Yposition Zposition Zrotation Xrotation Yrotation
											End Site
											{
												OFFSET 0.000000 0.000000 0.099998
											}
										}
									}
								}
							}
						}
					}
				}
				JOINT r_shoulder_JNT
				{
					OFFSET -4.397820 1.485011 12.860600
					CHANNELS 6 Xposition Yposition Zposition Zrotation Xrotation Yrotation
					JOINT r_arm_JNT
					{
						OFFSET -8.757320 0.049050 -2.312000
						CHANNELS 6 Xposition Yposition Zposition Zrotation Xrotation Yrotation
						JOINT r_forearm_JNT
						{
							OFFSET -26.900000 -0.000010 0.000000
							CHANNELS 6 Xposition Yposition Zposition Zrotation Xrotation Yrotation
							JOINT r_hand_JNT
							{
								OFFSET -23.014900 0.000000 0.000000
								CHANNELS 6 Xposition Yposition Zposition Zrotation Xrotation Yrotation
								JOINT r_handThumb1_JNT
								{
									OFFSET -3.629997 -2.130000 -0.779999
									CHANNELS 6 Xposition Yposition Zposition Zrotation Xrotation Yrotation
									JOINT r_handThumb2_JNT
									{
										OFFSET -3.551201 -2.240060 -2.118000
										CHANNELS 6 Xposition Yposition Zposition Zrotation Xrotation Yrotation
										JOINT r_handThumb3_JNT
										{
											OFFSET -2.159103 -0.963467 -1.116001
											CHANNELS 6 Xposition Yposition Zposition Zrotation Xrotation Yrotation
											End Site
											{
												OFFSET 0.000000 0.000000 0.099998
											}
										}
									}
								}
								JOINT r_handIndex1_JNT
								{
									OFFSET -10.514900 -2.197560 -0.040997
									CHANNELS 6 Xposition Yposition Zposition Zrotation Xrotation Yrotation
									JOINT r_handIndex2_JNT
									{
										OFFSET -2.751801 0.139050 -0.102997
										CHANNELS 6 Xposition Yposition Zposition Zrotation Xrotation Yrotation
										JOINT r_handIndex3_JNT
										{
											OFFSET -2.352997 0.090490 -0.073006
											CHANNELS 6 Xposition Yposition Zposition Zrotation Xrotation Yrotation
											End Site
											{
												OFFSET 0.000000 0.000000 0.099998
											}
										}
									}
								}
								JOINT r_handMiddle1_JNT
								{
									OFFSET -10.067101 -0.059570 0.139999
									CHANNELS 6 Xposition Yposition Zposition Zrotation Xrotation Yrotation
									JOINT r_handMiddle2_JNT
									{
										OFFSET -3.909103 0.119070 -0.288998
										CHANNELS 6 Xposition Yposition Zposition Zrotation Xrotation Yrotation
										JOINT r_handMiddle3_JNT
										{
											OFFSET -2.328400 0.059440 -0.019001
											CHANNELS 6 Xposition Yposition Zposition Zrotation Xrotation Yrotation
											End Site
											{
												OFFSET 0.000000 0.000000 0.099998
											}
										}
									}
								}
								JOINT r_handRing1_JNT
								{
									OFFSET -9.468102 1.809830 0.133003
									CHANNELS 6 Xposition Yposition Zposition Zrotation Xrotation Yrotation
									JOINT r_handRing2_JNT
									{
										OFFSET -3.281601 0.033939 -0.224995
										CHANNELS 6 Xposition Yposition Zposition Zrotation Xrotation Yrotation
										JOINT r_handRing3_JNT
										{
											OFFSET -2.245003 0.008390 -0.070000
											CHANNELS 6 Xposition Yposition Zposition Zrotation Xrotation Yrotation
											End Site
											{
												OFFSET 0.000000 0.000000 0.099998
											}
										}
									}
								}
								JOINT r_handPinky1_JNT
								{
									OFFSET -8.490799 3.584149 -0.076996
									CHANNELS 6 Xposition Yposition Zposition Zrotation Xrotation Yrotation
									JOINT r_handPinky2_JNT
									{
										OFFSET -2.532204 0.017040 -0.074005
										CHANNELS 6 Xposition Yposition Zposition Zrotation Xrotation Yrotation
										JOINT r_handPinky3_JNT
										{
											OFFSET -1.951202 -0.017010 0.026001
											CHANNELS 6 Xposition Yposition Zposition Zrotation Xrotation Yrotation
											End Site
											{
												OFFSET 0.000000 0.000000 0.099998
											}
										}
									}
								}
							}
						}
					}
				}
			}
		}
	}
	JOINT l_upleg_JNT
	{
		OFFSET 10.061400 0.706233 -5.185750
		CHANNELS 6 Xposition Yposition Zposition Zrotation Xrotation Yrotation
		JOINT l_leg_JNT
		{
			OFFSET -0.348572 0.819165 -45.582401
			CHANNELS 6 Xposition Yposition Zposition Zrotation Xrotation Yrotation
			JOINT l_foot_JNT
			{
				OFFSET 0.349145 1.708487 -42.332497
				CHANNELS 6 Xposition Yposition Zposition Zrotation Xrotation Yrotation
				JOINT l_toebase_JNT
				{
					OFFSET 0.070271 -12.888700 -8.126663
					CHANNELS 6 Xposition Yposition Zposition Zrotation Xrotation Yrotation
					End Site
					{
						OFFSET 0.000000 0.000000 0.099998
					}
				}
			}
		}
	}
	JOINT r_upleg_JNT
	{
		OFFSET -10.061000 0.706233 -5.185770
		CHANNELS 6 Xposition Yposition Zposition Zrotation Xrotation Yrotation
		JOINT r_leg_JNT
		{
			OFFSET 0.348580 0.819162 -45.582405
			CHANNELS 6 Xposition Yposition Zposition Zrotation Xrotation Yrotation
			JOINT r_foot_JNT
			{
				OFFSET -0.349180 1.708487 -42.332504
				CHANNELS 6 Xposition Yposition Zposition Zrotation Xrotation Yrotation
				JOINT r_toebase_JNT
				{
					OFFSET -0.070200 -12.888700 -8.126663
					CHANNELS 6 Xposition Yposition Zposition Zrotation Xrotation Yrotation
					End Site
					{
						OFFSET 0.000000 0.000000 0.099998
					}
				}
			}
		}
	}
}
MOTION
Frames: 4
Frame Time: 0.041667
0.182174 0.090679 100.057037 8.610991 7.501696 1.547984 -0.000424 -2.543428 9.319808 0.000114 0.002108 -3.045812 0.000000 0.000047 10.873103 -0.000000 0.000005 0.000000 -0.000000 5.951160 12.426386 -3.775528 0.018989 -0.778670 0.000000 1.460481 13.979692 -4.661747 -3.719585 -6.100548 0.000001 -2.091509 5.870211 -0.173942 5.762149 2.515812 4.399139 1.485011 12.861008 -0.000001 -0.000000 -0.000003 8.757345 0.049051 -2.311986 -12.447001 -5.136854 62.524132 26.900116 -0.000010 -0.000054 -114.453009 -14.028315 9.057980 23.014801 0.000001 -0.000045 -0.000001 -0.000002 -0.000001 3.629981 -2.129996 -0.779997 -22.207701 20.704834 4.106610 3.551139 -2.240059 -2.118377 0.000004 0.000001 0.000003 2.159104 -0.963463 -1.116300 1.464955 0.190434 14.810512 10.514896 -2.197577 -0.041015 -1.409117 6.794460 23.400749 2.751837 0.139049 -0.102867 -2.316136 8.575495 30.176517 2.353008 0.090471 -0.073404 -1.035253 5.868220 20.032516 10.067108 -0.059591 0.139210 -1.275049 5.246224 27.326310 3.909025 0.119055 -0.288402 -2.087476 6.575827 35.195371 2.328402 0.059429 -0.019102 -0.943002 4.541703 23.405337 9.468112 1.809821 0.132240 0.823518 -2.960550 31.134243 3.281525 0.033952 -0.224047 1.342803 -3.681381 40.051727 2.245004 0.008380 -0.070209 0.609154 -2.571211 26.680186 8.490766 3.584144 -0.077767 1.976409 -6.415503 34.209723 2.532175 0.017031 -0.073082 3.213384 -7.922955 44.096330 1.951214 -0.016998 0.025111 1.461615 -5.588305 29.290126 -4.397822 1.485009 12.860588 -0.000000 -0.000000 0.000003 -8.757322 0.049049 -2.312022 47.111486 -24.126200 -57.874795 -26.899998 -0.000004 -0.000009 79.916902 -11.205683 -13.356099 -23.014902 -0.000002 -0.000005 -0.000001 -0.000002 0.000006 -3.629992 -2.130001 -0.779994 22.207713 20.704825 -4.106612 -3.551201 -2.240057 -2.117999 -0.000003 -0.000004 0.000001 -2.159100 -0.963470 -1.116008 1.356200 -0.162810 -13.681701 -10.514882 -2.197565 -0.040986 1.201989 6.303226 -21.601832 -2.751809 0.139051 -0.102999 1.980252 7.976868 -27.845578 -2.352993 0.090479 -0.072997 0.886135 5.436495 -18.496133 -10.067087 -0.059579 0.140011 1.091366 4.873269 -25.232904 -3.909112 0.119092 -0.288997 1.788884 6.131792 -32.491753 -2.328398 0.059428 -0.018997 0.804328 4.213595 -21.614385 -9.468111 1.809819 0.133010 -0.707795 -2.753508 -28.757180 -3.281618 0.033944 -0.224996 -1.151546 -3.443717 -36.991171 -2.244996 0.008392 -0.069996 -0.521401 -2.387839 -24.643997 -8.490786 3.584144 -0.076976 -1.692883 -5.979453 -31.582740 -2.532210 0.017041 -0.074009 -2.758487 -7.430617 -40.697330 -1.951197 -0.017002 0.026008 -1.250864 -5.195812 -27.044855 10.061401 0.706225 -5.185747 -3.564966 -0.043491 -19.930929 -0.348574 0.819164 -45.582397 0.568347 -1.281559 0.462255 0.349144 1.708489 -42.332493 -0.082539 14.237618 -2.130637 0.070277 -12.888704 -8.126665 -3.993987 -16.429240 -0.330054 -10.061000 0.706224 -5.185766 -4.596179 -10.555904 6.588859 0.348581 0.819166 -45.582409 0.703455 24.834006 -0.794654 -0.349178 1.708492 -42.332500 -0.255400 -1.839882 -1.435173 -0.070200 -12.888708 -8.126657 1.646587 -20.142588 0.292472 
0.182174 0.090679 100.057037 8.610991 7.501696 1.547984 -0.000424 -2.543428 9.319808 0.000114 0.002108 -3.045812 0.000000 0.000047 10.873103 -0.000000 0.000005 0.000000 -0.000000 5.951160 12.426386 -3.775528 0.018989 -0.778670 0.000000 1.460481 13.979698 -4.661936 -3.719561 -6.100559 0.000005 -2.091510 5.870219 -0.173942 5.762149 2.515811 4.399139 1.485011 12.861008 -0.000001 -0.000000 -0.000003 8.757345 0.049051 -2.311986 -12.447001 -5.136854 62.524132 26.900116 -0.000010 -0.000054 -114.453009 -14.028315 9.057980 23.014801 0.000001 -0.000045 -0.000001 -0.000002 -0.000001 3.629981 -2.129996 -0.779997 -22.207701 20.704834 4.106610 3.551139 -2.240059 -2.118377 0.000004 0.000001 0.000003 2.159104 -0.963463 -1.116300 1.464955 0.190434 14.810512 10.514896 -2.197577 -0.041015 -1.409117 6.794460 23.400749 2.751837 0.139049 -0.102867 -2.316136 8.575495 30.176517 2.353008 0.090471 -0.073404 -1.035253 5.868220 20.032516 10.067108 -0.059591 0.139210 -1.275049 5.246224 27.326310 3.909025 0.119055 -0.288402 -2.087476 6.575827 35.195371 2.328402 0.059429 -0.019102 -0.943002 4.541703 23.405337 9.468112 1.809821 0.132240 0.823518 -2.960550 31.134243 3.281525 0.033952 -0.224047 1.342803 -3.681381 40.051727 2.245004 0.008380 -0.070209 0.609154 -2.571211 26.680186 8.490766 3.584143 -0.077770 1.976074 -6.415729 34.209689 2.532176 0.017040 -0.073076 3.213558 -7.922788 44.096357 1.951216 -0.017008 0.025115 1.461150 -5.588561 29.290081 -4.397822 1.485009 12.860588 -0.000000 -0.000000 0.000003 -8.757322 0.049049 -2.312022 47.111486 -24.126200 -57.874795 -26.899998 -0.000004 -0.000009 79.916902 -11.205683 -13.356099 -23.014902 -0.000002 -0.000005 -0.000001 -0.000002 0.000006 -3.629992 -2.130001 -0.779994 22.207713 20.704825 -4.106612 -3.551201 -2.240057 -2.117999 -0.000003 -0.000004 0.000001 -2.159100 -0.963470 -1.116008 1.356200 -0.162810 -13.681701 -10.514882 -2.197565 -0.040986 1.201989 6.303226 -21.601832 -2.751809 0.139051 -0.102999 1.980252 7.976868 -27.845578 -2.352993 0.090479 -0.072997 0.886135 5.436495 -18.496133 -10.067087 -0.059579 0.140011 1.091366 4.873269 -25.232904 -3.909111 0.119092 -0.289003 1.789257 6.131556 -32.491790 -2.328397 0.059435 -0.018989 0.804328 4.213594 -21.614385 -9.468111 1.809819 0.133010 -0.707795 -2.753508 -28.757180 -3.281618 0.033944 -0.224996 -1.151546 -3.443717 -36.991171 -2.244996 0.008392 -0.069996 -0.521401 -2.387839 -24.643997 -8.490792 3.584143 -0.076971 -1.693276 -5.979212 -31.582778 -2.532202 0.017041 -0.074008 -2.758709 -7.430429 -40.697365 -1.951191 -0.017014 0.026012 -1.250864 -5.195811 -27.044853 10.061401 0.706225 -5.185747 -3.564966 -0.043491 -19.930929 -0.348574 0.819164 -45.582397 0.568347 -1.281559 0.462255 0.349144 1.708489 -42.332493 -0.082539 14.237618 -2.130637 0.070277 -12.888704 -8.126665 -3.993987 -16.429240 -0.330054 -10.061000 0.706224 -5.185766 -4.596179 -10.555904 6.588859 0.348582 0.819166 -45.582405 0.707669 24.833953 -0.796424 -0.349177 1.708490 -42.332508 -0.255403 -1.839878 -1.435172 -0.070197 -12.888704 -8.126658 1.646588 -20.142581 0.292473 
0.215397 0.074814 99.969238 8.597611 7.508282 1.504798 -0.000424 -2.543411 9.319814 0.039599 -0.000430 -2.992122 0.000000 0.000046 10.873090 0.000000 0.000002 0.000000 0.000001 5.951165 12.426405 -3.773034 0.018927 -0.772406 0.000000 1.460479 13.979703 -4.688128 -3.689637 -6.135565 0.000002 -2.091491 5.870186 -0.178551 5.636970 2.511116 4.399139 1.485011 12.860999 0.000001 -0.000000 0.000010 8.757347 0.049049 -2.311973 -14.174975 -4.223357 62.382064 26.900099 -0.000012 -0.000034 -115.146034 -11.234836 7.150844 23.014809 -0.000000 -0.000050 0.055953 -0.000002 -0.000003 3.630001 -2.130003 -0.779993 -22.207710 20.704837 4.106615 3.551130 -2.240042 -2.118380 0.000010 -0.000002 0.000002 2.159117 -0.963469 -1.116310 1.465474 0.190575 14.810608 10.514904 -2.197568 -0.041014 -1.408641 6.794721 23.400891 2.751837 0.139075 -0.102858 -2.316780 8.575204 30.176814 2.353026 0.090498 -0.073384 -1.035998 5.868015 20.032791 10.067111 -0.059572 0.139206 -1.274539 5.246537 27.326468 3.909027 0.119066 -0.288385 -2.087848 6.575630 35.195709 2.328401 0.059436 -0.019109 -0.940733 4.542711 23.405359 9.468117 1.809832 0.132244 0.825165 -2.959584 31.134526 3.281524 0.033931 -0.224043 1.341944 -3.682154 40.051980 2.245000 0.008387 -0.070199 0.611469 -2.570065 26.680585 8.490767 3.584153 -0.077769 1.975797 -6.415977 34.209955 2.532171 0.017019 -0.073093 3.213118 -7.923305 44.096685 1.951219 -0.016994 0.025112 1.462127 -5.588067 29.290378 -4.397821 1.485010 12.860608 0.000000 -0.000001 0.000016 -8.757314 0.049049 -2.312010 49.485045 -22.718230 -56.969477 -26.899998 -0.000004 0.000001 80.960507 -9.011737 -10.550764 -23.014900 0.000008 0.000002 0.000000 0.000002 0.000001 -3.630002 -2.129987 -0.780002 22.207713 20.704825 -4.106612 -3.551205 -2.240058 -2.118004 -0.000002 -0.000004 -0.000000 -2.159099 -0.963467 -1.115997 1.355638 -0.162679 -13.681601 -10.514892 -2.197550 -0.040986 1.202558 6.302946 -21.601696 -2.751803 0.139058 -0.102989 1.980901 7.976455 -27.845471 -2.352987 0.090511 -0.072995 0.884431 5.437016 -18.495874 -10.067110 -0.059563 0.140000 1.090688 4.873544 -25.232749 -3.909107 0.119064 -0.288978 1.789214 6.131530 -32.491586 -2.328398 0.059446 -0.019005 0.806117 4.212852 -21.614318 -9.468116 1.809845 0.132993 -0.705827 -2.754558 -28.756879 -3.281605 0.033939 -0.224991 -1.152596 -3.442898 -36.990932 -2.245001 0.008389 -0.070004 -0.522751 -2.387195 -24.643852 -8.490798 3.584158 -0.076982 -1.693225 -5.979186 -31.582481 -2.532205 0.017033 -0.074010 -2.759287 -7.429851 -40.697146 -1.951203 -0.017003 0.026005 -1.251390 -5.195494 -27.044699 10.061401 0.706241 -5.185748 -3.523168 -0.040775 -19.879056 -0.348573 0.819163 -45.582413 0.564126 -1.281551 0.462381 0.349140 1.708499 -42.332485 -0.083475 14.215492 -2.125385 0.070271 -12.888706 -8.126672 -4.014962 -17.145793 -0.408478 -10.060999 0.706241 -5.185771 -4.622224 -10.800848 6.666960 0.348578 0.819168 -45.582417 0.737365 25.344190 -0.815129 -0.349179 1.708490 -42.332504 -0.211551 -2.103441 -1.453104 -0.070202 -12.888706 -8.126652 1.648398 -20.151196 0.292681 
0.247296 0.042088 99.888336 8.574701 7.503730 1.463545 -0.000424 -2.543421 9.319801 0.000090 0.001689 -2.941312 -0.000000 0.000045 10.873101 -0.000001 0.000002 -0.000000 0.000001 5.951169 12.426399 -3.768256 0.018572 -0.765941 0.000000 1.460478 13.979683 -4.703805 -3.655857 -6.156902 -0.000002 -2.091506 5.870189 -0.160749 5.507641 2.494688 4.399138 1.485008 12.860992 0.000000 0.000000 -0.000003 8.757353 0.049053 -2.311984 -15.533971 -3.480282 62.290512 26.900105 -0.000005 -0.000043 -115.583029 -8.990368 5.670403 23.014812 0.000005 -0.000052 -0.000002 0.000005 0.000006 3.629996 -2.130003 -0.779997 -22.207698 20.704832 4.106614 3.551143 -2.240038 -2.118370 0.000010 -0.000003 0.000006 2.159134 -0.963470 -1.116291 1.465482 0.190572 14.810912 10.514913 -2.197583 -0.041021 -1.409765 6.794388 23.401422 2.751837 0.139057 -0.102863 -2.316363 8.575642 30.177343 2.353019 0.090479 -0.073398 -1.036079 5.868107 20.033194 10.067107 -0.059578 0.139198 -1.276271 5.245768 27.327126 3.909029 0.119061 -0.288390 -2.088300 6.575486 35.196450 2.328400 0.059442 -0.019100 -0.940810 4.542793 23.405861 9.468122 1.809824 0.132243 0.824410 -2.960109 31.135086 3.281530 0.033942 -0.224050 1.343375 -3.681052 40.052861 2.244997 0.008397 -0.070215 0.611515 -2.570103 26.681089 8.490778 3.584147 -0.077766 1.976596 -6.415597 34.210638 2.532174 0.017036 -0.073088 3.213314 -7.923347 44.097494 1.951218 -0.017012 0.025116 1.461762 -5.588404 29.290935 -4.397821 1.485006 12.860577 -0.000000 -0.000000 0.000000 -8.757318 0.049051 -2.312010 51.311011 -21.575557 -56.327740 -26.899996 -0.000006 0.000001 81.610399 -7.207364 -8.344569 -23.014904 -0.000011 0.000002 -0.000000 0.000006 0.000008 -3.629998 -2.129978 -0.780004 22.207710 20.704820 -4.106618 -3.551206 -2.240066 -2.118012 -0.000003 -0.000003 -0.000003 -2.159109 -0.963469 -1.115997 1.355639 -0.162677 -13.682103 -10.514889 -2.197545 -0.040992 1.204553 6.302426 -21.602705 -2.751805 0.139045 -0.102995 1.980482 7.977033 -27.846493 -2.352989 0.090487 -0.073001 0.884562 5.437196 -18.496581 -10.067101 -0.059561 0.139998 1.089539 4.874290 -25.233540 -3.909109 0.119084 -0.288992 1.789457 6.131675 -32.492801 -2.328406 0.059442 -0.018997 0.805331 4.213338 -21.615155 -9.468116 1.809843 0.132999 -0.704951 -2.755158 -28.757934 -3.281610 0.033957 -0.225009 -1.152746 -3.442956 -36.992332 -2.244998 0.008378 -0.070002 -0.524191 -2.386632 -24.644818 -8.490792 3.584161 -0.076983 -1.693456 -5.979321 -31.583689 -2.532199 0.017030 -0.074000 -2.758983 -7.430506 -40.698577 -1.951190 -0.017008 0.026008 -1.251563 -5.195632 -27.045713 10.061402 0.706234 -5.185752 -3.471601 -0.014898 -19.826258 -0.348570 0.819166 -45.582397 0.561288 -1.281554 0.462349 0.349142 1.708498 -42.332493 -0.076519 14.184076 -2.123713 0.070267 -12.888709 -8.126664 -4.034818 -17.783694 -0.478893 -10.060999 0.706232 -5.185785 -4.675829 -11.010557 6.739736 0.348580 0.819165 -45.582409 0.737772 25.811802 -0.820946 -0.349181 1.708489 -42.332497 -0.249485 -2.332716 -1.469763 -0.070204 -12.888706 -8.126663 1.653610 -20.171295 0.293908 
